<?xml version="1.0" ?><!DOCTYPE svg  PUBLIC '-//W3C//DTD SVG 1.1//EN'  'http://www.w3.org/Graphics/SVG/1.1/DTD/svg11.dtd'><svg enable-background="new 0 0 512 512" height="512px" version="1.1" viewBox="0 0 512 512" width="512px" xml:space="preserve" xmlns="http://www.w3.org/2000/svg" xmlns:xlink="http://www.w3.org/1999/xlink"><g id="Layer_4"><circle cx="257.379" cy="255.754" fill="#417B64" r="220.539"/><path d="M452.714,255.753c0,107.876-87.458,195.335-195.335,195.335c-107.881,0-195.334-87.459-195.334-195.335   c0-107.879,87.453-195.335,195.334-195.335C365.256,60.418,452.714,147.874,452.714,255.753z" fill="#FFFFFF"/><path d="M440.111,255.754c0,100.923-81.816,182.732-182.732,182.732c-100.922,0-182.732-81.81-182.732-182.732   c0-100.919,81.81-182.733,182.732-182.733C358.295,73.021,440.111,154.834,440.111,255.754z" fill="#417B64"/><g><path d="M260.16,278.275c3.273,3.12,5.858,6.646,7.754,10.584c1.883,3.938,2.83,8.817,2.83,14.646    c0,5.827-1.28,11.304-3.815,16.43c-2.547,5.125-6.399,9.58-11.568,13.353c-5.501,3.858-12.061,6.849-19.691,8.984    c-7.63,2.135-17.069,3.199-28.306,3.199c-18.387,0-32.121-2.688-41.228-8.061s-13.661-13.23-13.661-23.568    c0-8.368,3.273-14.971,9.845-19.813c6.56-4.843,14.929-7.464,25.106-7.877v-1.723c-2.461-0.738-5.009-1.661-7.63-2.769    c-2.634-1.108-4.886-2.4-6.769-3.877c-2.141-1.723-3.864-3.754-5.168-6.092c-1.317-2.339-1.969-5.23-1.969-8.677    c0-4.348,1.538-8.347,4.615-11.999c3.077-3.649,7.729-6.787,13.968-9.415v-1.846c-7.876-3.692-13.993-8.43-18.337-14.214    c-4.356-5.784-6.522-12.492-6.522-20.122c0-11.485,4.283-20.921,12.86-28.306c8.566-7.384,19.543-11.076,32.921-11.076    c3.692,0,7.359,0.369,11.015,1.107c3.643,0.739,7.36,1.683,11.138,2.831h42.336v11.815h-28.552v0.738    c3.028,3.529,5.292,7.427,6.769,11.691c1.477,4.268,2.215,8.452,2.215,12.553c0,10.667-4.332,19.691-12.983,27.075    c-8.664,7.384-18.731,11.076-30.213,11.076h-14.892c-1.895,0.658-3.864,1.846-5.907,3.569c-2.055,1.723-3.077,4.062-3.077,7.015    c0,3.036,0.861,5.354,2.584,6.953s3.815,2.689,6.276,3.262c2.375,0.658,5.145,1.064,8.307,1.23    c3.151,0.166,6.412,0.289,9.784,0.369c3.606,0.08,8.553,0.326,14.83,0.738c6.277,0.412,10.719,0.658,13.353,0.738    c3.766,0.166,7.568,1.064,11.384,2.708C253.576,273.149,257.034,275.401,260.16,278.275z M250.561,308.058    c0-4.597-1.07-8.368-3.199-11.322c-2.142-2.953-5.378-4.966-9.723-6.03c-2.301-0.326-7.015-0.695-14.153-1.107    c-7.138-0.412-15.433-0.615-24.86-0.615c-8.861,1.723-15.162,4.615-18.891,8.677c-3.741,4.061-5.6,9.291-5.6,15.69    c0,2.874,0.615,5.618,1.846,8.246c1.23,2.627,3.359,5.046,6.399,7.261c2.867,2.136,6.719,3.877,11.568,5.23    c4.836,1.354,10.744,2.031,17.722,2.031c12.061,0,21.55-2.32,28.491-6.954C247.09,324.53,250.561,317.491,250.561,308.058z     M226.932,206.28c0-9.6-1.957-17.248-5.846-22.953c-3.901-5.701-9.378-8.553-16.43-8.553c-3.864,0-7.163,0.8-9.907,2.4    c-2.756,1.6-4.984,3.876-6.707,6.831c-1.649,2.708-2.818,5.969-3.507,9.784c-0.702,3.815-1.046,7.735-1.046,11.753    c0,9.107,1.981,16.535,5.969,22.276c3.975,5.744,9.12,8.615,15.445,8.615c7.052,0,12.492-2.849,16.307-8.553    C225.024,222.178,226.932,214.978,226.932,206.28z" fill="#FFFFFF"/><path d="M362.283,254.129H328.98v33.302h-9.378v-33.302H286.3v-9.23h33.303v-33.302h9.378v33.302h33.303V254.129z" fill="#FFFFFF"/></g></g></svg>